# AST/ASF file generated using VICON BodyLanguage
# -----------------------------------------------
:version 1.10
:name VICON
:units
  mass 1.0
  length 0.45
  angle deg
:documentation
   .ast/.asf automatically generated from VICON data using
   VICON BodyBuilder and BodyLanguage model FoxedUp or BRILLIANT.MOD
:root
   order TX TY TZ RX RY RZ
   axis XYZ
   position 0 0 0  
   orientation 0 0 0 
:bonedata
  begin
     id 1 
     name lhipjoint
     direction 0.650112 -0.723553 0.232005 
     length 2.45805 
     axis 0 0 0  XYZ
  end
  begin
     id 2 
     name lfemur
     direction 0.34202 -0.939693 0  
     length 7.00073  
     axis 0 0 20  XYZ
    dof rx ry rz
    limits (-160.0 20.0)
           (-70.0 70.0)
           (-60.0 70.0)
  end
  begin
     id 3 
     name ltibia
     direction 0.34202 -0.939693 0   
     length 7.8748   
     axis 0 0 20   XYZ
    dof rx
    limits (-10.0 170.0)
  end
  begin
     id 4 
     name lfoot
     direction 0.0542825 -0.14914 0.987325   
     length 1.75978   
     axis -90 7.62852e-016 20   XYZ
    dof rx rz
    limits (-45.0 90.0)
           (-70.0 20.0)
  end
  begin
     id 5 
     name ltoes
     direction 1.53509e-011 -4.21906e-011 1   
     length 0.893912   
     axis -90 7.62852e-016 20   XYZ
    dof rx
    limits (-90.0 20.0)
  end
  begin
     id 6 
     name rhipjoint
     direction -0.637897 -0.733345 0.235145   
     length 2.42522  
     axis 0 0 0  XYZ 
  end
  begin
     id 7 
     name rfemur
     direction -0.34202 -0.939693 0   
     length 7.02549   
     axis 0 0 -20   XYZ
    dof rx ry rz
    limits (-160.0 20.0)
           (-70.0 70.0)
           (-70.0 60.0)
  end
  begin
     id 8 
     name rtibia
     direction -0.34202 -0.939693 0   
     length 7.71512   
     axis 0 0 -20   XYZ
    dof rx
    limits (-10.0 170.0)
 end
 begin
     id 9 
     name rfoot
     direction -0.0822618 -0.226012 0.970645   
     length 1.90014  
     axis -90 -7.62852e-016 -20   XYZ
    dof rx rz
    limits (-45.0 90.0)
           (-20.0 70.0)
  end
  begin
     id 10 
     name rtoes
     direction -1.53542e-011 -4.21872e-011 1   
     length 0.957341   
     axis -90 -7.62852e-016 -20   XYZ
    dof rx
    limits (-90.0 20.0)
  end
  begin
     id 11 
     name lowerback
     direction -0.0022947 0.999774 -0.0211557   
     length 1.89909   
     axis 0 0 0   XYZ
    dof rx ry rz
    limits (-20.0 45.0)
           (-30.0 30.0)
           (-30.0 30.0)
  end
  begin
     id 12 
     name upperback
     direction 0.0107737 0.998635 0.0511027   
     length 1.8853   
     axis 0 0 0   XYZ
    dof rx ry rz
    limits (-20.0 45.0)
           (-30.0 30.0)
           (-30.0 30.0)
  end
  begin
     id 13 
     name thorax
     direction 0.011824 0.998136 0.0598754   
     length 1.88911   
     axis 0 0 0   XYZ
    dof rx ry rz
    limits (-20.0 45.0)
           (-30.0 30.0)
           (-30.0 30.0)
  end
  begin
     id 14 
     name lowerneck
     direction -0.0685355 0.990319 0.120714   
     length 1.91222   
     axis 0 0 0   XYZ
    dof rx ry rz
    limits (-20.0 45.0)
           (-30.0 30.0)
           (-30.0 30.0)
  end
  begin
     id 15 
     name upperneck
     direction 0.0886204 0.955665 -0.280805   
     length 1.92526   
     axis 0 0 0   XYZ
    dof rx ry rz
    limits (-20.0 45.0)
           (-30.0 30.0)
           (-30.0 30.0)
  end
  begin
     id 16
     name head
     direction 0.0233423 0.993502 -0.111393  
     length 1.96056  
     axis 0 0 0   XYZ
    dof rx ry rz
    limits (-20.0 45.0)
           (-30.0 30.0)
           (-30.0 30.0)
  end
  begin
     id 17 
     name lclavicle
     direction 0.941873 0.32922 0.0670041  
     length 3.31705  
     axis 0 0 0   XYZ
    dof ry rz
    limits (-20.0 10.0)
           (0.0 20.0)
  end
  begin
     id 18 
     name lhumerus
     direction 1 -4.4898e-011 3.38707e-028   
     length 5.29277   
     axis 180 -30 -90   XYZ
    dof rx ry rz
    limits (-60.0 90.0)
           (-90.0 90.0)
           (-90.0 90.0)
  end
  begin
     id 19
     name lradius
     direction 1 -4.48952e-011 1.63213e-028   
     length 2.85226   
     axis 180 -30 -90   XYZ
    dof rx
    limits (-10.0 170.0)
  end
  begin
     id 20
     name lwrist
     direction 1 -4.49001e-011 1.27856e-027   
     length 1.42613   
     axis -1.61767e-015 90 90   XYZ
    dof ry
    limits (-180.0 0.0)
 end
  begin
     id 21 
     name lhand
     direction 1 -4.48976e-011 2.55931e-027   
     length 0.602097   
     axis -1.63363e-015 90 90   XYZ
    dof rx rz
    limits (-90.0 90.0)
           (-45.0 45.0)
  end
  begin
     id 22 
     name lfingers
     direction 1 -4.48986e-011 5.11684e-027   
     length 0.485426   
     axis -3.26723e-015 90 90   XYZ
    dof rx
    limits (0.0 90.0)
  end
  begin
     id 23
     name lthumb
     direction 0.707107 -6.34915e-011 0.707107   
     length 0.696978   
     axis -90 45 -2.25915e-014   XYZ
    dof rx rz
    limits (-45.0 45.0)
           (-45.0 45.0)
  end
  begin
     id 24 
     name rclavicle
     direction -0.939974 0.327078 0.0973096   
     length 3.10337  
     axis 0 0 0   XYZ 
    dof ry rz
    limits (-10.0 20.0)
           (-20.0 0.0)
  end
  begin
     id 25 
     name rhumerus
     direction -1 -4.48975e-011 1.83745e-027  
     length 5.13304   
     axis 180 30 90   XYZ
    dof rx ry rz
    limits (-90.0 60.0)
           (-90.0 90.0)
           (-90.0 90.0)
  end
  begin
     id 26 
     name rradius
     direction -1 -4.48977e-011 7.1775e-029   
     length 2.74305   
     axis 180 30 90   XYZ
    dof rx
    limits (-10.0 170.0)
  end
  begin
     id 27 
     name rwrist
     direction -1 -4.48977e-011 1.27963e-027   
     length 1.37152   
     axis -1.61767e-015 -90 -90   XYZ
    dof ry
    limits (-180.0 0.0)
  end
  begin
     id 28
     name rhand
     direction -1 -4.4888e-011 2.56782e-027   
     length 0.767976   
     axis -1.63363e-015 -90 -90   XYZ
    dof rx rz
    limits (-90.0 90.0)
           (-45.0 45.0)
  end
  begin
     id 29
     name rfingers
     direction -1 -4.48947e-011 5.12384e-027   
     length 0.619162   
     axis -3.26723e-015 -90 -90   XYZ
    dof rx
    limits (0.0 90.0)
  end
  begin
     id 30
     name rthumb
     direction -0.707107 -6.34857e-011 0.707107   
     length 0.888997   
     axis -90 -45 2.25915e-014   XYZ
    dof rx rz
    limits (-45.0 45.0)
           (-45.0 45.0)
  end
:hierarchy
  begin
    root lhipjoint rhipjoint lowerback
    lhipjoint lfemur
    lfemur ltibia
    ltibia lfoot
    lfoot ltoes
    rhipjoint rfemur
    rfemur rtibia
    rtibia rfoot
    rfoot rtoes
    lowerback upperback
    upperback thorax
    thorax lowerneck lclavicle rclavicle
    lowerneck upperneck
    upperneck head
    lclavicle lhumerus
    lhumerus lradius
    lradius lwrist
    lwrist lhand lthumb
    lhand lfingers
    rclavicle rhumerus
    rhumerus rradius
    rradius rwrist
    rwrist rhand rthumb
    rhand rfingers
  end

#!OML:ASF F:\VICON\USERDATA\INSTALL\rory3\rory3.ASF
:FULLY-SPECIFIED
:DEGREES
579
root -0.555594 16.609 -0.956034 -3.64269 21.8208 -6.58164
lowerback 3.56236 2.1958 -4.64526
upperback 3.85535 2.8654 -0.853467
thorax 1.79444 1.34496 1.66067
lowerneck 6.34125 -12.623 -24.061
upperneck 25.0287 -21.6865 18.7112
head 12.0717 -11.2 8.57369
rclavicle 5.1684e-015 -1.90833e-014
rhumerus 7.89621 12.8878 -90.8368
rradius 113.474
rwrist -19.8972
rhand -26.1102 15.9898
rfingers 7.12502
rthumb 0.439275 -13.9895
lclavicle 5.1684e-015 -1.90833e-014
lhumerus 24.5826 -18.2752 87.996
lradius 82.9099
lwrist -6.33732
lhand -16.1843 21.3267
lfingers 7.12502
lthumb 10.0223 51.0681
rfemur -10.0691 -10.4221 27.5817
rtibia 36.5369
rfoot -23.665 -14.295
rtoes -8.8364
lfemur -22.5599 -16.7442 -8.82434
ltibia 44.1689
lfoot -20.5299 -11.56
ltoes -11.6357
580
root -0.568662 16.5653 -0.99738 -3.70184 22.4369 -6.56312
lowerback 3.6315 2.07632 -5.02854
upperback 4.20811 2.70513 -0.50101
thorax 2.10012 1.23927 2.24575
lowerneck 6.67462 -12.4711 -24.6847
upperneck 24.9133 -21.5245 18.8378
head 12.0236 -11.1917 8.77374
rclavicle -1.88845e-014 0
rhumerus 9.46827 12.6013 -91.4558
rradius 110.954
rwrist -20.2518
rhand -25.9686 15.396
rfingers 7.12502
rthumb 0.576054 -14.583
lclavicle -1.88845e-014 0
lhumerus 25.2696 -18.7945 89.3423
lradius 79.1302
lwrist -7.86543
lhand -16.7992 20.8957
lfingers 7.12502
lthumb 9.4291 50.6648
rfemur -10.781 -11.2731 27.4685
rtibia 37.6845
rfoot -24.1385 -14.1469
rtoes -8.99611
lfemur -23.3472 -16.983 -8.81415
ltibia 45.0141
lfoot -20.6067 -12.1809
ltoes -10.889
581
root -0.580363 16.5252 -1.03676 -3.82701 22.9586 -6.67614
lowerback 3.90835 2.03807 -5.01501
upperback 4.4721 2.6468 -0.344979
thorax 2.21749 1.20216 2.39573
lowerneck 6.83457 -12.3913 -24.9667
upperneck 24.992 -21.4817 19.0206
head 12.0811 -11.1963 8.92089
rclavicle -5.50634e-014 3.18055e-015
rhumerus 10.7723 11.8763 -92.4707
rradius 108.253
rwrist -20.5746
rhand -25.3338 14.813
rfingers 7.12502
rthumb 1.18913 -15.1634
lclavicle -5.50634e-014 3.18055e-015
lhumerus 25.8597 -19.607 90.3528
lradius 75.2054
lwrist -9.13227
lhand -18.1923 20.6505
lfingers 7.12502
lthumb 8.08474 50.4758
rfemur -11.419 -12.0566 27.4962
rtibia 38.7414
rfoot -24.5807 -13.9501
rtoes -8.86358
lfemur -24.0631 -17.2149 -8.68199
ltibia 45.8265
lfoot -20.62 -12.4501
ltoes -10.1993
582
root -0.593585 16.4884 -1.07295 -3.96402 23.354 -6.88503
lowerback 4.25529 2.28346 -3.92182
upperback 4.65934 2.99725 -0.958071
thorax 2.27136 1.41595 1.13802
lowerneck 7.33099 -12.5028 -24.2563
upperneck 24.9685 -21.8953 19.6947
head 12.0945 -11.3253 9.06082
rclavicle 2.46493e-014 -1.74931e-014
rhumerus 11.8975 10.0408 -94.2884
rradius 105.362
rwrist -20.3299
rhand -25.4313 14.6663
rfingers 7.12502
rthumb 1.09502 -15.3106
lclavicle 2.46493e-014 -1.74931e-014
lhumerus 26.5068 -21.573 90.4874
lradius 71.207
lwrist -10.0775
lhand -19.6284 20.5442
lfingers 7.12502
lthumb 6.69851 50.4182
rfemur -12.0534 -12.6856 27.6645
rtibia 39.7064
rfoot -24.7794 -13.9626
rtoes -9.42154
lfemur -24.7554 -17.2669 -8.4291
ltibia 46.6105
lfoot -20.6396 -12.7779
ltoes -9.55128
583
root -0.607222 16.4495 -1.10535 -4.20587 23.6437 -7.19751
lowerback 4.55926 2.63865 -2.79828
upperback 4.79528 3.49974 -1.46812
thorax 2.31295 1.70853 -0.0331645
lowerneck 8.27771 -12.6533 -23.5141
upperneck 24.6551 -22.3845 20.3771
head 11.9249 -11.5182 9.20319
rclavicle 4.01545e-014 2.22639e-014
rhumerus 12.7863 8.05653 -95.952
rradius 102.334
rwrist -19.9009
rhand -25.5925 14.4998
rfingers 7.12502
rthumb 0.939318 -15.4779
lclavicle 4.01545e-014 2.22639e-014
lhumerus 26.8966 -23.3754 91.0568
lradius 66.9812
lwrist -10.9768
lhand -20.8281 19.7801
lfingers 7.12502
lthumb 5.54029 49.6877
rfemur -12.5544 -13.1933 27.9266
rtibia 40.5744
rfoot -25.0859 -13.8241
rtoes -9.30661
lfemur -25.3309 -17.238 -8.09084
ltibia 47.3887
lfoot -20.8264 -13.1056
ltoes -10.0429
584
root -0.619902 16.4084 -1.13646 -4.47614 23.8674 -7.45745
lowerback 4.76071 2.82002 -3.11823
upperback 4.94604 3.72077 -0.941314
thorax 2.29894 1.80008 0.67115
lowerneck 9.00512 -12.633 -23.7594
upperneck 24.4085 -22.4147 20.3425
head 11.7273 -11.5973 9.26309
rclavicle -1.78906e-014 1.74931e-014
rhumerus 13.4615 7.25424 -96.6006
rradius 98.9993
rwrist -19.6536
rhand -25.2778 14.3854
rfingers 7.12502
rthumb 1.24327 -15.5907
lclavicle -1.78906e-014 1.74931e-014
lhumerus 26.8255 -23.4593 93.138
lradius 62.7864
lwrist -12.1037
lhand -21.9246 19.1077
lfingers 7.12502
lthumb 4.48156 49.0403
rfemur -12.96 -13.6196 28.1327
rtibia 41.4156
rfoot -25.4282 -13.6554
rtoes -8.91979
lfemur -25.8049 -17.2121 -7.82322
ltibia 48.12
lfoot -21.0168 -13.3703
ltoes -10.4031
585
root -0.630246 16.3705 -1.16677 -4.70285 24.0829 -7.75442
lowerback 4.96143 2.9371 -3.23877
upperback 5.08116 3.86272 -0.510023
thorax 2.28588 1.8597 1.16833
lowerneck 9.38696 -12.6377 -23.9249
upperneck 24.3454 -22.439 20.2536
head 11.6491 -11.6458 9.27181
rclavicle 1.59028e-014 0
rhumerus 14.1411 6.37098 -97.6411
rradius 95.4377
rwrist -19.3338
rhand -24.5758 14.4404
rfingers 7.12502
rthumb 1.92131 -15.5307
lclavicle 1.59028e-014 0
lhumerus 26.4994 -23.2213 95.0759
lradius 59.1536
lwrist -12.9036
lhand -22.3005 18.9805
lfingers 7.12502
lthumb 4.11863 48.9204
rfemur -13.3872 -14.1445 28.3792
rtibia 42.2175
rfoot -25.7064 -13.5588
rtoes -9.09212
lfemur -26.3036 -17.2157 -7.51663
ltibia 48.8047
lfoot -21.1957 -13.5728
ltoes -10.9671
586
root -0.638848 16.3356 -1.19659 -4.76324 24.2759 -7.61327
lowerback 5.21909 2.98444 -3.53506
upperback 5.23058 3.90893 -0.354348
thorax 2.26744 1.87095 1.48089
lowerneck 9.65083 -12.6255 -23.9792
upperneck 24.2857 -22.4232 20.1736
head 11.5677 -11.6602 9.2666
rclavicle 3.06128e-014 -2.06736e-014
rhumerus 14.8153 5.61432 -99.0009
rradius 91.5989
rwrist -18.6096
rhand -23.9588 14.4977
rfingers 7.12502
rthumb 2.51717 -15.4672
lclavicle 3.06128e-014 -2.06736e-014
lhumerus 26.0035 -22.6185 96.7712
lradius 56.1334
lwrist -13.2
lhand -23.534 19.6049
lfingers 7.12502
lthumb 2.92738 49.5645
rfemur -13.7812 -14.6266 28.1614
rtibia 42.9999
rfoot -25.9728 -13.3519
rtoes -9.11784
lfemur -26.6764 -17.3362 -7.6796
ltibia 49.3958
lfoot -21.3185 -13.618
ltoes -11.0407
587
root -0.646922 16.3055 -1.22407 -4.83623 24.3378 -7.47892
lowerback 5.54315 3.09525 -3.86911
upperback 5.33802 4.03121 -0.127544
thorax 2.15654 1.91966 1.87863
lowerneck 9.95238 -12.5933 -24.2042
upperneck 24.2048 -22.4199 20.2013
head 11.5162 -11.6931 9.33296
rclavicle 1.19271e-015 1.59028e-015
rhumerus 15.3466 4.93319 -100.105
rradius 87.6746
rwrist -17.596
rhand -23.7277 14.6684
rfingers 7.12502
rthumb 2.74033 -15.2937
lclavicle 1.19271e-015 1.59028e-015
lhumerus 25.3278 -21.7069 98.7056
lradius 53.1465
lwrist -13.2592
lhand -25.1203 20.2979
lfingers 7.12502
lthumb 1.39534 50.2731
rfemur -14.1326 -14.9336 27.956
rtibia 43.7396
rfoot -26.2726 -13.1281
rtoes -9.06133
lfemur -26.9566 -17.3464 -7.84437
ltibia 49.9264
lfoot -21.4155 -13.6762
ltoes -11.0152
588
root -0.655424 16.2766 -1.24845 -4.99089 24.384 -7.57323
lowerback 5.92006 3.17693 -3.98347
upperback 5.35252 4.11523 0.117359
thorax 1.93276 1.95889 2.16781
lowerneck 10.1156 -12.54 -24.3083
upperneck 24.3708 -22.3585 20.0918
head 11.5346 -11.6848 9.33659
rclavicle 6.97734e-014 -1.74931e-014
rhumerus 15.6883 4.34501 -101.261
rradius 83.8357
rwrist -16.4535
rhand -23.7225 14.414
rfingers 7.12502
rthumb 2.74538 -15.5481
lclavicle 6.97734e-014 -1.74931e-014
lhumerus 24.4846 -20.3469 100.64
lradius 49.9271
lwrist -13.1401
lhand -24.9914 20.3247
lfingers 7.12502
lthumb 1.51989 50.2991
rfemur -14.4721 -15.1546 28.0097
rtibia 44.4565
rfoot -26.5664 -13.0452
rtoes -9.12382
lfemur -27.2129 -17.2995 -7.75918
ltibia 50.3877
lfoot -21.58 -13.7686
ltoes -11.1152
589
root -0.662526 16.2498 -1.26853 -5.04604 24.4449 -7.52711
lowerback 6.38661 3.22066 -4.14541
upperback 5.24409 4.13868 0.293077
thorax 1.53722 1.9729 2.40526
lowerneck 10.221 -12.4581 -24.4746
upperneck 24.6524 -22.2464 19.8925
head 11.5917 -11.6595 9.32226
rclavicle -2.82274e-014 6.36111e-015
rhumerus 15.7499 3.88997 -102.424
rradius 80.0601
rwrist -15.4004
rhand -23.8778 14.0065
rfingers 7.12502
rthumb 2.59539 -15.9575
lclavicle -2.82274e-014 6.36111e-015
lhumerus 23.3256 -18.6335 102.465
lradius 46.995
lwrist -13.3056
lhand -25.0541 20.4419
lfingers 7.12502
lthumb 1.45934 50.4166
rfemur -14.8209 -15.4378 27.9285
rtibia 45.1422
rfoot -26.8525 -12.8771
rtoes -8.95137
lfemur -27.4571 -17.3184 -7.80778
ltibia 50.8072
lfoot -21.7777 -13.7896
ltoes -11.4132
590
root -0.668926 16.2263 -1.28927 -4.99234 24.4691 -7.18936
lowerback 6.66266 3.2914 -4.5148
upperback 5.3337 4.20424 0.407735
thorax 1.44176 1.99544 2.711
lowerneck 10.0938 -12.4837 -24.5789
upperneck 24.7912 -22.2227 19.6967
head 11.6516 -11.6528 9.25487
rclavicle -7.03698e-014 2.22639e-014
rhumerus 16.0168 3.5617 -103.351
rradius 76.3112
rwrist -14.5173
rhand -24.0939 13.6148
rfingers 7.12502
rthumb 2.38666 -16.3516
lclavicle -7.03698e-014 2.22639e-014
lhumerus 22.3297 -16.8676 104.067
lradius 44.386
lwrist -13.7811
lhand -26.0056 20.6409
lfingers 7.12502
lthumb 0.540352 50.6199
rfemur -15.1268 -15.6429 27.5498
rtibia 45.7789
rfoot -27.1112 -12.7059
rtoes -8.76852
lfemur -27.6252 -17.3843 -8.17701
ltibia 51.1662
lfoot -21.8606 -13.6768
ltoes -11.1568
591
root -0.67297 16.2016 -1.31161 -4.98479 24.4672 -6.98914
lowerback 6.54201 3.36786 -4.72528
upperback 5.67089 4.31368 0.606046
thorax 1.82344 2.02803 3.0454
lowerneck 9.9898 -12.5363 -24.7744
upperneck 24.5657 -22.2679 19.7931
head 11.636 -11.6745 9.29517
rclavicle -2.08724e-014 -1.19271e-014
rhumerus 16.5564 3.27164 -104.058
rradius 72.5404
rwrist -13.8078
rhand -24.2394 14.109
rfingers 7.12502
rthumb 2.24619 -15.8589
lclavicle -2.08724e-014 -1.19271e-014
lhumerus 21.623 -15.1504 105.464
lradius 42.2003
lwrist -13.9352
lhand -26.491 20.6732
lfingers 7.12502
lthumb 0.0714923 50.6529
rfemur -15.4206 -15.7917 27.3056
rtibia 46.3408
rfoot -27.3053 -12.6003
rtoes -8.80046
lfemur -27.8229 -17.4516 -8.40387
ltibia 51.4933
lfoot -21.8589 -13.6504
ltoes -10.9147
592
root -0.675971 16.1814 -1.32906 -5.0258 24.3734 -6.97801
lowerback 6.43975 3.45686 -4.80397
upperback 5.91478 4.44046 0.863284
thorax 2.09936 2.07455 3.36285
lowerneck 9.936 -12.5816 -24.8561
upperneck 24.317 -22.2786 19.791
head 11.5602 -11.6768 9.28566
rclavicle 1.17283e-014 -1.43125e-014
rhumerus 16.7827 3.097 -104.583
rradius 68.8581
rwrist -13.3529
rhand -24.045 15.3113
rfingers 7.12502
rthumb 2.4339 -14.6546
lclavicle 1.17283e-014 -1.43125e-014
lhumerus 20.7782 -13.6594 106.452
lradius 40.4955
lwrist -13.639
lhand -26.4858 21.6257
lfingers 7.12502
lthumb 0.0765788 51.6055
rfemur -15.6788 -15.8477 27.2706
rtibia 46.8018
rfoot -27.4376 -12.5
rtoes -8.2194
lfemur -27.9802 -17.4098 -8.42269
ltibia 51.7811
lfoot -21.934 -13.6088
ltoes -11.0881
